# xmcd CD database file
#
# Track frame offsets:
#	150
#	10952
#	29924
#	48472
#	67257
#	91638
#	107673
#	125350
#	137842
#	154318
#	173089
#	187470
#
# Disc length: 2829 seconds
#
# Revision: 0
# Processed by: cddbd v1.5.2PL0 Copyright (c) Steve Scherf et al.
# Submitted via: CDex 1.51
#
DISCID=af0b0b0c
DTITLE=Jamestown Revival - Utah
DYEAR=2015
DGENRE=Country
TTITLE0=Fur Coat Blues
TTITLE1=California (Cast Iron Soul)
TTITLE2=Golden Age
TTITLE3=Wandering Man
TTITLE4=Heavy Heart
TTITLE5=Revival
TTITLE6=Truth
TTITLE7=Medicine
TTITLE8=Headhunters
TTITLE9=Time Is Gone
TTITLE10=Home
TTITLE11=California (Cast Iron Soul) (Cabin Mix)
EXTD=YEAR: 2015
EXTT0=
EXTT1=
EXTT2=
EXTT3=
EXTT4=
EXTT5=
EXTT6=
EXTT7=
EXTT8=
EXTT9=
EXTT10=
EXTT11=
PLAYORDER=
